<svg width="430" height="972" viewBox="0 0 430 972" fill="none" xmlns="http://www.w3.org/2000/svg">
<g clip-path="url(#clip0_2016_278)">
<rect x="25" y="24" width="382" height="926" fill="white"/>
<rect x="25" y="24" width="382" height="31" fill="white"/>
<path d="M355.49 0H74.5092C55.4689 0.0238211 37.2145 8.46001 23.751 23.4578C10.2875 38.4555 2.71426 58.79 2.69287 80V892C2.71426 913.21 10.2875 933.544 23.751 948.542C37.2145 963.54 55.4689 971.976 74.5092 972H355.49C374.531 971.976 392.785 963.54 406.249 948.542C419.712 933.544 427.285 913.21 427.307 892V80C427.285 58.79 419.712 38.4555 406.249 23.4578C392.785 8.46001 374.531 0.0238211 355.49 0V0ZM406.659 892.91C406.664 908.037 401.277 922.548 391.683 933.253C382.088 943.958 369.07 949.981 355.49 950H74.5989C61.0191 949.981 48.0015 943.958 38.4067 933.253C28.8119 922.548 23.425 908.037 23.4298 892.91V81.09C23.425 65.9627 28.8119 51.4522 38.4067 40.7472C48.0015 30.0422 61.0191 24.0186 74.5989 24H355.49C369.07 24.0186 382.088 30.0422 391.683 40.7472C401.277 51.4522 406.664 65.9627 406.659 81.09V892.91Z" fill="#B8B8B8"/>
<path d="M430 210H424.614V319H430V210Z" fill="#B8B8B8"/>
<path d="M5.38622 136H0V167H5.38622V136Z" fill="#B8B8B8"/>
<path d="M5.38622 204H0V265H5.38622V204Z" fill="#B8B8B8"/>
<path d="M5.38622 287H0V349H5.38622V287Z" fill="#B8B8B8"/>
<path d="M140.042 24H289.958V32.7495C289.96 35.8032 289.32 38.8272 288.075 41.6487C286.83 44.4702 285.004 47.0338 282.703 49.1931C280.401 51.3524 277.669 53.0649 274.661 54.2329C271.654 55.4009 268.43 56.0013 265.175 56H164.825C161.57 56.0013 158.347 55.4009 155.339 54.2329C152.332 53.0649 149.599 51.3524 147.298 49.1931C144.996 47.0338 143.171 44.4702 141.926 41.6487C140.681 38.8272 140.041 35.8032 140.042 32.7495V24Z" fill="#B8B8B8"/>
<path d="M171.569 40.0001C172.796 40.0022 173.995 39.5985 175.016 38.8401C175.775 38.2706 176.411 37.5207 176.879 36.6442C177.346 35.7678 177.633 34.7867 177.719 33.7717C177.805 32.7568 177.687 31.7333 177.375 30.775C177.063 29.8167 176.564 28.9475 175.914 28.2301C175.05 27.2631 173.946 26.605 172.745 26.3401C171.847 26.1403 170.921 26.1649 170.033 26.4122C169.145 26.6594 168.317 27.1231 167.61 27.7698C166.902 28.4164 166.332 29.23 165.941 30.1518C165.55 31.0735 165.347 32.0805 165.348 33.1001C165.348 34.9284 165.999 36.6819 167.159 37.9756C168.318 39.2693 169.892 39.9974 171.533 40.0001H171.569Z" fill="#2B2B29"/>
<path d="M176.848 33.1798C176.848 34.3386 176.54 35.4716 175.963 36.4354C175.385 37.3993 174.564 38.1508 173.604 38.595C172.643 39.0391 171.585 39.156 170.565 38.9308C169.544 38.7056 168.607 38.1485 167.871 37.3298C167.131 36.5121 166.628 35.4672 166.425 34.3288C166.222 33.1904 166.328 32.0104 166.731 30.9398C167.126 29.8676 167.799 28.9508 168.664 28.3062C169.529 27.6615 170.547 27.3182 171.587 27.3198C172.983 27.3267 174.321 27.9444 175.313 29.0398C175.801 29.5827 176.189 30.2281 176.452 30.9387C176.716 31.6493 176.85 32.411 176.848 33.1798V33.1798Z" fill="#1C1D22"/>
<path d="M174.154 33.1802C174.153 33.6119 174.067 34.0381 173.901 34.4283C173.735 34.8185 173.494 35.163 173.195 35.4372C172.895 35.7115 172.545 35.9086 172.17 36.0146C171.794 36.1205 171.402 36.1327 171.021 36.0502C170.516 35.9319 170.051 35.6542 169.684 35.2502C169.315 34.8413 169.065 34.3188 168.966 33.7502C168.867 33.1856 168.92 32.6013 169.118 32.0702C169.312 31.5356 169.647 31.079 170.079 30.7602C170.582 30.3799 171.188 30.2077 171.793 30.2735C172.398 30.3392 172.964 30.6388 173.391 31.1202C173.634 31.3908 173.826 31.7121 173.957 32.0656C174.088 32.419 174.155 32.7978 174.154 33.1802V33.1802Z" fill="#25295F"/>
<path d="M196.875 21C196.11 21.0467 195.389 21.4184 194.862 22.0388C194.335 22.6591 194.041 23.4808 194.041 24.335C194.041 25.1892 194.335 26.0109 194.862 26.6312C195.389 27.2515 196.11 27.6233 196.875 27.67H232.739C233.504 27.6233 234.225 27.2515 234.752 26.6312C235.279 26.0109 235.573 25.1892 235.573 24.335C235.573 23.4808 235.279 22.6591 234.752 22.0388C234.225 21.4184 233.504 21.0467 232.739 21H196.875Z" fill="#2B2B29"/>
</g>
<defs>
<clipPath id="clip0_2016_278">
<rect width="430" height="972" fill="white"/>
</clipPath>
</defs>
</svg>
